<svg xmlns="http://www.w3.org/2000/svg" xmlns:xlink="http://www.w3.org/1999/xlink" width="118" zoomAndPan="magnify" viewBox="0 0 88.5 39.749999" height="53" preserveAspectRatio="xMidYMid meet" version="1.0"><defs><g/><clipPath id="26004c2eda"><path d="M 0.664062 0.429688 L 33.023438 0.429688 L 33.023438 32.789062 L 0.664062 32.789062 Z M 0.664062 0.429688 " clip-rule="nonzero"/></clipPath><clipPath id="b950a7283b"><path d="M 16.84375 0.429688 C 7.90625 0.429688 0.664062 7.671875 0.664062 16.609375 C 0.664062 25.546875 7.90625 32.789062 16.84375 32.789062 C 25.777344 32.789062 33.023438 25.546875 33.023438 16.609375 C 33.023438 7.671875 25.777344 0.429688 16.84375 0.429688 " clip-rule="nonzero"/></clipPath><linearGradient x1="0.0000036139" gradientTransform="matrix(0.126402, 0, 0, 0.126402, 0.662994, 0.429863)" y1="0.0000036139" x2="255.99999" gradientUnits="userSpaceOnUse" y2="255.99999" id="809523a28c"><stop stop-opacity="1" stop-color="rgb(45.498657%, 65.899658%, 93.699646%)" offset="0"/><stop stop-opacity="1" stop-color="rgb(45.574951%, 65.791321%, 93.688965%)" offset="0.015625"/><stop stop-opacity="1" stop-color="rgb(45.729065%, 65.577698%, 93.670654%)" offset="0.03125"/><stop stop-opacity="1" stop-color="rgb(45.881653%, 65.364075%, 93.652344%)" offset="0.046875"/><stop stop-opacity="1" stop-color="rgb(46.034241%, 65.150452%, 93.634033%)" offset="0.0625"/><stop stop-opacity="1" stop-color="rgb(46.188354%, 64.935303%, 93.614197%)" offset="0.078125"/><stop stop-opacity="1" stop-color="rgb(46.340942%, 64.72168%, 93.595886%)" offset="0.09375"/><stop stop-opacity="1" stop-color="rgb(46.49353%, 64.508057%, 93.577576%)" offset="0.109375"/><stop stop-opacity="1" stop-color="rgb(46.647644%, 64.292908%, 93.557739%)" offset="0.125"/><stop stop-opacity="1" stop-color="rgb(46.800232%, 64.079285%, 93.539429%)" offset="0.140625"/><stop stop-opacity="1" stop-color="rgb(46.954346%, 63.865662%, 93.521118%)" offset="0.15625"/><stop stop-opacity="1" stop-color="rgb(47.106934%, 63.652039%, 93.502808%)" offset="0.171875"/><stop stop-opacity="1" stop-color="rgb(47.259521%, 63.43689%, 93.482971%)" offset="0.1875"/><stop stop-opacity="1" stop-color="rgb(47.413635%, 63.223267%, 93.464661%)" offset="0.203125"/><stop stop-opacity="1" stop-color="rgb(47.566223%, 63.009644%, 93.44635%)" offset="0.21875"/><stop stop-opacity="1" stop-color="rgb(47.718811%, 62.794495%, 93.426514%)" offset="0.234375"/><stop stop-opacity="1" stop-color="rgb(47.872925%, 62.580872%, 93.408203%)" offset="0.25"/><stop stop-opacity="1" stop-color="rgb(48.025513%, 62.367249%, 93.389893%)" offset="0.265625"/><stop stop-opacity="1" stop-color="rgb(48.178101%, 62.153625%, 93.371582%)" offset="0.28125"/><stop stop-opacity="1" stop-color="rgb(48.332214%, 61.938477%, 93.351746%)" offset="0.296875"/><stop stop-opacity="1" stop-color="rgb(48.484802%, 61.724854%, 93.333435%)" offset="0.3125"/><stop stop-opacity="1" stop-color="rgb(48.63739%, 61.51123%, 93.315125%)" offset="0.328125"/><stop stop-opacity="1" stop-color="rgb(48.791504%, 61.296082%, 93.295288%)" offset="0.34375"/><stop stop-opacity="1" stop-color="rgb(48.944092%, 61.082458%, 93.276978%)" offset="0.359375"/><stop stop-opacity="1" stop-color="rgb(49.09668%, 60.868835%, 93.258667%)" offset="0.375"/><stop stop-opacity="1" stop-color="rgb(49.250793%, 60.655212%, 93.240356%)" offset="0.390625"/><stop stop-opacity="1" stop-color="rgb(49.403381%, 60.440063%, 93.22052%)" offset="0.40625"/><stop stop-opacity="1" stop-color="rgb(49.557495%, 60.22644%, 93.202209%)" offset="0.421875"/><stop stop-opacity="1" stop-color="rgb(49.710083%, 60.012817%, 93.183899%)" offset="0.4375"/><stop stop-opacity="1" stop-color="rgb(49.862671%, 59.797668%, 93.164062%)" offset="0.453125"/><stop stop-opacity="1" stop-color="rgb(50.016785%, 59.584045%, 93.145752%)" offset="0.46875"/><stop stop-opacity="1" stop-color="rgb(50.169373%, 59.370422%, 93.127441%)" offset="0.484375"/><stop stop-opacity="1" stop-color="rgb(50.32196%, 59.156799%, 93.109131%)" offset="0.5"/><stop stop-opacity="1" stop-color="rgb(50.39978%, 59.049988%, 93.099976%)" offset="0.5"/><stop stop-opacity="1" stop-color="rgb(50.476074%, 58.94165%, 93.089294%)" offset="0.5"/><stop stop-opacity="1" stop-color="rgb(50.552368%, 58.834839%, 93.080139%)" offset="0.515625"/><stop stop-opacity="1" stop-color="rgb(50.628662%, 58.728027%, 93.070984%)" offset="0.53125"/><stop stop-opacity="1" stop-color="rgb(50.78125%, 58.514404%, 93.052673%)" offset="0.546875"/><stop stop-opacity="1" stop-color="rgb(50.935364%, 58.299255%, 93.032837%)" offset="0.5625"/><stop stop-opacity="1" stop-color="rgb(51.087952%, 58.085632%, 93.014526%)" offset="0.578125"/><stop stop-opacity="1" stop-color="rgb(51.24054%, 57.872009%, 92.996216%)" offset="0.59375"/><stop stop-opacity="1" stop-color="rgb(51.394653%, 57.65686%, 92.977905%)" offset="0.609375"/><stop stop-opacity="1" stop-color="rgb(51.547241%, 57.443237%, 92.958069%)" offset="0.625"/><stop stop-opacity="1" stop-color="rgb(51.699829%, 57.229614%, 92.939758%)" offset="0.640625"/><stop stop-opacity="1" stop-color="rgb(51.853943%, 57.015991%, 92.921448%)" offset="0.65625"/><stop stop-opacity="1" stop-color="rgb(52.006531%, 56.800842%, 92.901611%)" offset="0.671875"/><stop stop-opacity="1" stop-color="rgb(52.160645%, 56.587219%, 92.883301%)" offset="0.6875"/><stop stop-opacity="1" stop-color="rgb(52.313232%, 56.373596%, 92.86499%)" offset="0.703125"/><stop stop-opacity="1" stop-color="rgb(52.46582%, 56.158447%, 92.845154%)" offset="0.71875"/><stop stop-opacity="1" stop-color="rgb(52.619934%, 55.944824%, 92.826843%)" offset="0.734375"/><stop stop-opacity="1" stop-color="rgb(52.772522%, 55.731201%, 92.808533%)" offset="0.75"/><stop stop-opacity="1" stop-color="rgb(52.92511%, 55.517578%, 92.790222%)" offset="0.765625"/><stop stop-opacity="1" stop-color="rgb(53.079224%, 55.302429%, 92.770386%)" offset="0.78125"/><stop stop-opacity="1" stop-color="rgb(53.231812%, 55.088806%, 92.752075%)" offset="0.796875"/><stop stop-opacity="1" stop-color="rgb(53.384399%, 54.875183%, 92.733765%)" offset="0.8125"/><stop stop-opacity="1" stop-color="rgb(53.538513%, 54.660034%, 92.713928%)" offset="0.828125"/><stop stop-opacity="1" stop-color="rgb(53.691101%, 54.446411%, 92.695618%)" offset="0.84375"/><stop stop-opacity="1" stop-color="rgb(53.843689%, 54.232788%, 92.677307%)" offset="0.859375"/><stop stop-opacity="1" stop-color="rgb(53.997803%, 54.019165%, 92.658997%)" offset="0.875"/><stop stop-opacity="1" stop-color="rgb(54.150391%, 53.804016%, 92.63916%)" offset="0.890625"/><stop stop-opacity="1" stop-color="rgb(54.302979%, 53.590393%, 92.62085%)" offset="0.90625"/><stop stop-opacity="1" stop-color="rgb(54.457092%, 53.37677%, 92.602539%)" offset="0.921875"/><stop stop-opacity="1" stop-color="rgb(54.60968%, 53.161621%, 92.582703%)" offset="0.9375"/><stop stop-opacity="1" stop-color="rgb(54.762268%, 52.947998%, 92.564392%)" offset="0.953125"/><stop stop-opacity="1" stop-color="rgb(54.916382%, 52.734375%, 92.546082%)" offset="0.96875"/><stop stop-opacity="1" stop-color="rgb(55.06897%, 52.520752%, 92.527771%)" offset="0.984375"/><stop stop-opacity="1" stop-color="rgb(55.223083%, 52.305603%, 92.507935%)" offset="1"/></linearGradient></defs><g clip-path="url(#26004c2eda)"><g clip-path="url(#b950a7283b)"><path fill="url(#809523a28c)" d="M 0.664062 0.429688 L 0.664062 32.789062 L 33.023438 32.789062 L 33.023438 0.429688 Z M 0.664062 0.429688 " fill-rule="nonzero"/></g></g><g fill="#1d1233" fill-opacity="1"><g transform="translate(16.842504, 31.978606)"><g><path d="M 3.40625 -9.484375 C 2.976562 -9.484375 2.613281 -9.625 2.3125 -9.90625 C 2.019531 -10.1875 1.875 -10.554688 1.875 -11.015625 L 1.875 -17.546875 C 1.875 -18.003906 2.019531 -18.375 2.3125 -18.65625 C 2.613281 -18.9375 2.976562 -19.078125 3.40625 -19.078125 L 21.34375 -19.078125 C 21.78125 -19.078125 22.144531 -18.9375 22.4375 -18.65625 C 22.726562 -18.375 22.875 -18.003906 22.875 -17.546875 L 22.875 -11.015625 C 22.875 -10.554688 22.726562 -10.1875 22.4375 -9.90625 C 22.144531 -9.625 21.78125 -9.484375 21.34375 -9.484375 Z M 6.171875 -17.6875 C 6.066406 -17.6875 5.976562 -17.644531 5.90625 -17.5625 C 5.832031 -17.488281 5.796875 -17.398438 5.796875 -17.296875 L 5.796875 -15 L 18.953125 -15 L 18.953125 -17.296875 C 18.953125 -17.398438 18.914062 -17.488281 18.84375 -17.5625 C 18.769531 -17.644531 18.679688 -17.6875 18.578125 -17.6875 Z M 18.578125 -10.890625 C 18.679688 -10.890625 18.769531 -10.925781 18.84375 -11 C 18.914062 -11.070312 18.953125 -11.160156 18.953125 -11.265625 L 18.953125 -13.59375 L 5.796875 -13.59375 L 5.796875 -11.265625 C 5.796875 -11.160156 5.832031 -11.070312 5.90625 -11 C 5.976562 -10.925781 6.066406 -10.890625 6.171875 -10.890625 Z M 22.421875 -7.453125 C 22.859375 -7.453125 23.222656 -7.304688 23.515625 -7.015625 C 23.804688 -6.722656 23.953125 -6.359375 23.953125 -5.921875 L 23.953125 2.703125 C 23.953125 3.140625 23.804688 3.503906 23.515625 3.796875 C 23.222656 4.085938 22.859375 4.234375 22.421875 4.234375 L 16.734375 4.234375 L 15.96875 2.828125 L 19.609375 2.828125 C 19.710938 2.828125 19.800781 2.789062 19.875 2.71875 C 19.945312 2.644531 19.984375 2.554688 19.984375 2.453125 L 19.984375 -5.671875 C 19.984375 -5.765625 19.945312 -5.847656 19.875 -5.921875 C 19.800781 -6.003906 19.710938 -6.046875 19.609375 -6.046875 L 6.59375 -6.046875 L 4.859375 -3.109375 L 0.78125 -3.109375 L 4.109375 -8.75 L 8.203125 -8.75 L 7.421875 -7.453125 Z M 11.8125 -4.890625 L 5.140625 4.234375 L 1.046875 4.234375 L 7.71875 -4.890625 Z M 18.640625 -4.890625 L 11.96875 4.234375 L 7.875 4.234375 L 14.546875 -4.890625 Z M 18.640625 -4.890625 "/></g></g></g><g fill="#1d1233" fill-opacity="1"><g transform="translate(41.904677, 31.978606)"><g><path d="M 5.671875 -14.5 C 5.566406 -14.195312 5.394531 -13.953125 5.15625 -13.765625 C 4.914062 -13.578125 4.632812 -13.46875 4.3125 -13.4375 L 0.78125 -13.0625 L 0.78125 -14.46875 L 1.5625 -14.546875 C 1.738281 -14.546875 1.851562 -14.628906 1.90625 -14.796875 L 3.390625 -19.28125 L 7.34375 -19.28125 L 6.953125 -18.125 L 12.984375 -18.125 L 12.984375 -16.734375 L 10.703125 -16.734375 L 11.859375 -13.09375 L 8.15625 -13.09375 L 7 -16.734375 L 6.4375 -16.734375 Z M 24.296875 -16.734375 L 22.921875 -16.734375 L 24.078125 -13.09375 L 20.359375 -13.09375 L 19.203125 -16.734375 L 18.25 -16.734375 L 17.484375 -14.5 C 17.378906 -14.195312 17.207031 -13.953125 16.96875 -13.765625 C 16.726562 -13.578125 16.445312 -13.46875 16.125 -13.4375 L 12.59375 -13.0625 L 12.59375 -14.46875 L 13.359375 -14.546875 C 13.546875 -14.546875 13.664062 -14.628906 13.71875 -14.796875 L 15.203125 -19.28125 L 19.15625 -19.28125 L 18.765625 -18.125 L 24.296875 -18.125 Z M 22.703125 -7.34375 C 22.765625 -7.226562 22.890625 -7.117188 23.078125 -7.015625 L 23.796875 -6.703125 L 23.796875 -5.1875 L 21.21875 -6.21875 L 21.21875 -4.96875 L 3.90625 -4.96875 L 3.90625 -6.21875 L 1.28125 -5.1875 L 1.28125 -6.703125 L 2.125 -7.078125 C 2.3125 -7.171875 2.4375 -7.273438 2.5 -7.390625 L 4.796875 -11.359375 C 4.960938 -11.640625 5.171875 -11.859375 5.421875 -12.015625 C 5.679688 -12.179688 5.976562 -12.265625 6.3125 -12.265625 L 18.890625 -12.265625 C 19.222656 -12.265625 19.515625 -12.179688 19.765625 -12.015625 C 20.023438 -11.859375 20.238281 -11.640625 20.40625 -11.359375 Z M 20.8125 -6.375 L 19.484375 -6.890625 C 19.253906 -6.992188 19.035156 -7.113281 18.828125 -7.25 C 18.628906 -7.394531 18.460938 -7.585938 18.328125 -7.828125 L 16.609375 -10.5625 C 16.453125 -10.757812 16.265625 -10.859375 16.046875 -10.859375 L 9.15625 -10.859375 C 8.9375 -10.859375 8.753906 -10.757812 8.609375 -10.5625 L 6.890625 -7.875 C 6.628906 -7.425781 6.238281 -7.109375 5.71875 -6.921875 L 4.3125 -6.375 Z M 20.84375 -2.953125 C 21.269531 -2.953125 21.628906 -2.804688 21.921875 -2.515625 C 22.222656 -2.222656 22.375 -1.859375 22.375 -1.421875 L 22.375 2.5 C 22.375 2.9375 22.222656 3.300781 21.921875 3.59375 C 21.628906 3.882812 21.269531 4.03125 20.84375 4.03125 L 4.234375 4.03125 C 3.804688 4.03125 3.441406 3.882812 3.140625 3.59375 C 2.847656 3.300781 2.703125 2.9375 2.703125 2.5 L 2.703125 -1.421875 C 2.703125 -1.859375 2.847656 -2.222656 3.140625 -2.515625 C 3.441406 -2.804688 3.804688 -2.953125 4.234375 -2.953125 Z M 18.328125 -1.171875 C 18.328125 -1.273438 18.289062 -1.363281 18.21875 -1.4375 C 18.144531 -1.519531 18.054688 -1.5625 17.953125 -1.5625 L 7.125 -1.5625 C 7.019531 -1.5625 6.929688 -1.519531 6.859375 -1.4375 C 6.785156 -1.363281 6.75 -1.273438 6.75 -1.171875 L 6.75 2.25 C 6.75 2.351562 6.785156 2.441406 6.859375 2.515625 C 6.929688 2.597656 7.019531 2.640625 7.125 2.640625 L 17.953125 2.640625 C 18.054688 2.640625 18.144531 2.597656 18.21875 2.515625 C 18.289062 2.441406 18.328125 2.351562 18.328125 2.25 Z M 18.328125 -1.171875 "/></g></g></g><g fill="#1d1233" fill-opacity="1"><g transform="translate(66.96685, 31.978606)"><g><path d="M 7.90625 2.5 C 7.46875 2.5 7.101562 2.351562 6.8125 2.0625 C 6.519531 1.769531 6.375 1.410156 6.375 0.984375 C 6.375 0.546875 6.519531 0.179688 6.8125 -0.109375 C 7.101562 -0.398438 7.46875 -0.546875 7.90625 -0.546875 C 8.332031 -0.546875 8.691406 -0.398438 8.984375 -0.109375 C 9.273438 0.179688 9.421875 0.546875 9.421875 0.984375 C 9.421875 1.410156 9.273438 1.769531 8.984375 2.0625 C 8.691406 2.351562 8.332031 2.5 7.90625 2.5 Z M 7.90625 2.5 "/></g></g></g></svg>